<mxfile host="app.diagrams.net" modified="2020-09-10T14:07:36.198Z" agent="5.0 (Macintosh; Intel Mac OS X 10_15_5) AppleWebKit/537.36 (KHTML, like Gecko) Chrome/84.0.4147.135 Safari/537.36" etag="Gx_sPqL_B6fZ0R0LXz7k" version="13.6.9" type="github">
  <diagram id="R2lEEEUBdFMjLlhIrx00" name="Page-1">
    <mxGraphModel dx="815" dy="498" grid="1" gridSize="10" guides="1" tooltips="1" connect="1" arrows="1" fold="1" page="1" pageScale="1" pageWidth="850" pageHeight="1100" math="0" shadow="0" extFonts="Permanent Marker^https://fonts.googleapis.com/css?family=Permanent+Marker">
      <root>
        <mxCell id="0" />
        <mxCell id="1" parent="0" />
        <mxCell id="i5uj6cN08diidUBK15VX-18" value="&lt;b&gt;FK&lt;/b&gt;" style="text;html=1;align=center;verticalAlign=middle;resizable=0;points=[];autosize=1;" vertex="1" parent="1">
          <mxGeometry x="40" y="330" width="30" height="20" as="geometry" />
        </mxCell>
        <mxCell id="i5uj6cN08diidUBK15VX-21" value="first_name" style="text;html=1;align=center;verticalAlign=middle;resizable=0;points=[];autosize=1;" vertex="1" parent="1">
          <mxGeometry x="80" y="220" width="70" height="20" as="geometry" />
        </mxCell>
        <mxCell id="i5uj6cN08diidUBK15VX-23" value="birth_date" style="text;html=1;align=center;verticalAlign=middle;resizable=0;points=[];autosize=1;" vertex="1" parent="1">
          <mxGeometry x="80" y="240" width="70" height="20" as="geometry" />
        </mxCell>
        <mxCell id="i5uj6cN08diidUBK15VX-24" value="speciality" style="text;html=1;align=center;verticalAlign=middle;resizable=0;points=[];autosize=1;" vertex="1" parent="1">
          <mxGeometry x="80" y="260" width="60" height="20" as="geometry" />
        </mxCell>
        <mxCell id="i5uj6cN08diidUBK15VX-26" value="GPA" style="text;html=1;align=center;verticalAlign=middle;resizable=0;points=[];autosize=1;" vertex="1" parent="1">
          <mxGeometry x="80" y="280" width="40" height="20" as="geometry" />
        </mxCell>
        <mxCell id="i5uj6cN08diidUBK15VX-27" value="Rating" style="text;html=1;align=center;verticalAlign=middle;resizable=0;points=[];autosize=1;" vertex="1" parent="1">
          <mxGeometry x="80" y="300" width="50" height="20" as="geometry" />
        </mxCell>
        <mxCell id="i5uj6cN08diidUBK15VX-36" value="first_name" style="text;html=1;align=center;verticalAlign=middle;resizable=0;points=[];autosize=1;" vertex="1" parent="1">
          <mxGeometry x="980" y="270" width="70" height="20" as="geometry" />
        </mxCell>
        <mxCell id="i5uj6cN08diidUBK15VX-37" value="birth_date" style="text;html=1;align=center;verticalAlign=middle;resizable=0;points=[];autosize=1;" vertex="1" parent="1">
          <mxGeometry x="985" y="290" width="70" height="20" as="geometry" />
        </mxCell>
        <mxCell id="i5uj6cN08diidUBK15VX-38" value="degree" style="text;html=1;align=center;verticalAlign=middle;resizable=0;points=[];autosize=1;" vertex="1" parent="1">
          <mxGeometry x="985" y="310" width="50" height="20" as="geometry" />
        </mxCell>
        <mxCell id="i5uj6cN08diidUBK15VX-39" value="e-mail" style="text;html=1;align=center;verticalAlign=middle;resizable=0;points=[];autosize=1;" vertex="1" parent="1">
          <mxGeometry x="985" y="330" width="50" height="20" as="geometry" />
        </mxCell>
        <mxCell id="i5uj6cN08diidUBK15VX-40" value="phone" style="text;html=1;align=center;verticalAlign=middle;resizable=0;points=[];autosize=1;" vertex="1" parent="1">
          <mxGeometry x="985" y="350" width="50" height="20" as="geometry" />
        </mxCell>
        <mxCell id="i5uj6cN08diidUBK15VX-45" value="course_name" style="text;html=1;align=center;verticalAlign=middle;resizable=0;points=[];autosize=1;" vertex="1" parent="1">
          <mxGeometry x="985" y="370" width="90" height="20" as="geometry" />
        </mxCell>
        <mxCell id="i5uj6cN08diidUBK15VX-52" value="Group" style="shape=table;startSize=40;container=1;collapsible=1;childLayout=tableLayout;fixedRows=1;rowLines=0;fontStyle=1;align=center;resizeLast=1;" vertex="1" parent="1">
          <mxGeometry x="359" y="120" width="200" height="240" as="geometry" />
        </mxCell>
        <mxCell id="i5uj6cN08diidUBK15VX-53" value="" style="shape=partialRectangle;collapsible=0;dropTarget=0;pointerEvents=0;fillColor=none;points=[[0,0.5],[1,0.5]];portConstraint=eastwest;top=0;left=0;right=0;bottom=1;" vertex="1" parent="i5uj6cN08diidUBK15VX-52">
          <mxGeometry y="40" width="200" height="40" as="geometry" />
        </mxCell>
        <mxCell id="i5uj6cN08diidUBK15VX-54" value="PK" style="shape=partialRectangle;overflow=hidden;connectable=0;fillColor=none;top=0;left=0;bottom=0;right=0;fontStyle=1;" vertex="1" parent="i5uj6cN08diidUBK15VX-53">
          <mxGeometry width="40" height="40" as="geometry" />
        </mxCell>
        <mxCell id="i5uj6cN08diidUBK15VX-55" value="group_id" style="shape=partialRectangle;overflow=hidden;connectable=0;fillColor=none;top=0;left=0;bottom=0;right=0;align=left;spacingLeft=6;fontStyle=5;" vertex="1" parent="i5uj6cN08diidUBK15VX-53">
          <mxGeometry x="40" width="160" height="40" as="geometry" />
        </mxCell>
        <mxCell id="i5uj6cN08diidUBK15VX-59" style="edgeStyle=orthogonalEdgeStyle;rounded=0;orthogonalLoop=1;jettySize=auto;html=1;exitX=1;exitY=0.5;exitDx=0;exitDy=0;" edge="1" parent="i5uj6cN08diidUBK15VX-52" source="i5uj6cN08diidUBK15VX-53" target="i5uj6cN08diidUBK15VX-53">
          <mxGeometry relative="1" as="geometry" />
        </mxCell>
        <mxCell id="i5uj6cN08diidUBK15VX-191" value="Adviser" style="shape=table;startSize=40;container=1;collapsible=1;childLayout=tableLayout;fixedRows=1;rowLines=0;fontStyle=1;align=center;resizeLast=1;" vertex="1" parent="1">
          <mxGeometry x="679" y="120" width="200" height="240" as="geometry" />
        </mxCell>
        <mxCell id="i5uj6cN08diidUBK15VX-192" value="" style="shape=partialRectangle;collapsible=0;dropTarget=0;pointerEvents=0;fillColor=none;points=[[0,0.5],[1,0.5]];portConstraint=eastwest;top=0;left=0;right=0;bottom=1;" vertex="1" parent="i5uj6cN08diidUBK15VX-191">
          <mxGeometry y="40" width="200" height="40" as="geometry" />
        </mxCell>
        <mxCell id="i5uj6cN08diidUBK15VX-193" value="PK" style="shape=partialRectangle;overflow=hidden;connectable=0;fillColor=none;top=0;left=0;bottom=0;right=0;fontStyle=1;" vertex="1" parent="i5uj6cN08diidUBK15VX-192">
          <mxGeometry width="40" height="40" as="geometry" />
        </mxCell>
        <mxCell id="i5uj6cN08diidUBK15VX-194" value="adv_id" style="shape=partialRectangle;overflow=hidden;connectable=0;fillColor=none;top=0;left=0;bottom=0;right=0;align=left;spacingLeft=6;fontStyle=5;" vertex="1" parent="i5uj6cN08diidUBK15VX-192">
          <mxGeometry x="40" width="160" height="40" as="geometry" />
        </mxCell>
        <mxCell id="i5uj6cN08diidUBK15VX-198" style="edgeStyle=orthogonalEdgeStyle;rounded=0;orthogonalLoop=1;jettySize=auto;html=1;exitX=1;exitY=0.5;exitDx=0;exitDy=0;" edge="1" parent="i5uj6cN08diidUBK15VX-191" source="i5uj6cN08diidUBK15VX-192" target="i5uj6cN08diidUBK15VX-192">
          <mxGeometry relative="1" as="geometry" />
        </mxCell>
        <mxCell id="i5uj6cN08diidUBK15VX-229" value="" style="shape=partialRectangle;collapsible=0;dropTarget=0;pointerEvents=0;fillColor=none;points=[[0,0.5],[1,0.5]];portConstraint=eastwest;top=0;left=0;right=0;bottom=0;" vertex="1" parent="i5uj6cN08diidUBK15VX-191">
          <mxGeometry y="80" width="200" height="40" as="geometry" />
        </mxCell>
        <mxCell id="i5uj6cN08diidUBK15VX-230" value="" style="shape=partialRectangle;overflow=hidden;connectable=0;fillColor=none;top=0;left=0;bottom=0;right=0;" vertex="1" parent="i5uj6cN08diidUBK15VX-229">
          <mxGeometry width="40" height="40" as="geometry" />
        </mxCell>
        <mxCell id="i5uj6cN08diidUBK15VX-231" value="last_name&#xa;first_name" style="shape=partialRectangle;overflow=hidden;connectable=0;fillColor=none;top=0;left=0;bottom=0;right=0;align=left;spacingLeft=6;" vertex="1" parent="i5uj6cN08diidUBK15VX-229">
          <mxGeometry x="40" width="160" height="40" as="geometry" />
        </mxCell>
        <mxCell id="i5uj6cN08diidUBK15VX-195" value="" style="shape=partialRectangle;collapsible=0;dropTarget=0;pointerEvents=0;fillColor=none;points=[[0,0.5],[1,0.5]];portConstraint=eastwest;top=0;left=0;right=0;bottom=0;" vertex="1" parent="i5uj6cN08diidUBK15VX-191">
          <mxGeometry y="120" width="200" height="40" as="geometry" />
        </mxCell>
        <mxCell id="i5uj6cN08diidUBK15VX-196" value="" style="shape=partialRectangle;overflow=hidden;connectable=0;fillColor=none;top=0;left=0;bottom=0;right=0;" vertex="1" parent="i5uj6cN08diidUBK15VX-195">
          <mxGeometry width="40" height="40" as="geometry" />
        </mxCell>
        <mxCell id="i5uj6cN08diidUBK15VX-197" value="" style="shape=partialRectangle;overflow=hidden;connectable=0;fillColor=none;top=0;left=0;bottom=0;right=0;align=left;spacingLeft=6;" vertex="1" parent="i5uj6cN08diidUBK15VX-195">
          <mxGeometry x="40" width="160" height="40" as="geometry" />
        </mxCell>
        <mxCell id="i5uj6cN08diidUBK15VX-46" value="group" style="text;html=1;align=center;verticalAlign=middle;resizable=0;points=[];autosize=1;" vertex="1" parent="1">
          <mxGeometry x="985" y="390" width="50" height="20" as="geometry" />
        </mxCell>
        <mxCell id="i5uj6cN08diidUBK15VX-62" value="speciality" style="text;html=1;align=center;verticalAlign=middle;resizable=0;points=[];autosize=1;" vertex="1" parent="1">
          <mxGeometry x="399" y="200" width="60" height="20" as="geometry" />
        </mxCell>
        <mxCell id="i5uj6cN08diidUBK15VX-64" value="course" style="text;html=1;align=center;verticalAlign=middle;resizable=0;points=[];autosize=1;" vertex="1" parent="1">
          <mxGeometry x="399" y="220" width="50" height="20" as="geometry" />
        </mxCell>
        <mxCell id="i5uj6cN08diidUBK15VX-66" value="group_leader" style="text;html=1;align=center;verticalAlign=middle;resizable=0;points=[];autosize=1;" vertex="1" parent="1">
          <mxGeometry x="399" y="240" width="90" height="20" as="geometry" />
        </mxCell>
        <mxCell id="i5uj6cN08diidUBK15VX-67" value="list_students" style="text;html=1;align=center;verticalAlign=middle;resizable=0;points=[];autosize=1;" vertex="1" parent="1">
          <mxGeometry x="404" y="260" width="80" height="20" as="geometry" />
        </mxCell>
        <mxCell id="i5uj6cN08diidUBK15VX-68" value="schedule" style="text;html=1;align=center;verticalAlign=middle;resizable=0;points=[];autosize=1;" vertex="1" parent="1">
          <mxGeometry x="404" y="280" width="60" height="20" as="geometry" />
        </mxCell>
        <mxCell id="i5uj6cN08diidUBK15VX-70" value="&lt;b&gt;FK&lt;/b&gt;" style="text;html=1;align=center;verticalAlign=middle;resizable=0;points=[];autosize=1;" vertex="1" parent="1">
          <mxGeometry x="940" y="420" width="30" height="20" as="geometry" />
        </mxCell>
        <mxCell id="i5uj6cN08diidUBK15VX-71" value="&lt;b&gt;FK&lt;/b&gt;" style="text;html=1;align=center;verticalAlign=middle;resizable=0;points=[];autosize=1;" vertex="1" parent="1">
          <mxGeometry x="360" y="330" width="30" height="20" as="geometry" />
        </mxCell>
        <mxCell id="i5uj6cN08diidUBK15VX-94" value="dep_type" style="text;html=1;align=center;verticalAlign=middle;resizable=0;points=[];autosize=1;" vertex="1" parent="1">
          <mxGeometry x="79" y="600" width="60" height="20" as="geometry" />
        </mxCell>
        <mxCell id="i5uj6cN08diidUBK15VX-95" value="techers" style="text;html=1;align=center;verticalAlign=middle;resizable=0;points=[];autosize=1;" vertex="1" parent="1">
          <mxGeometry x="79" y="620" width="50" height="20" as="geometry" />
        </mxCell>
        <mxCell id="i5uj6cN08diidUBK15VX-99" value="&lt;b&gt;FK&lt;/b&gt;" style="text;html=1;align=center;verticalAlign=middle;resizable=0;points=[];autosize=1;" vertex="1" parent="1">
          <mxGeometry x="39" y="770" width="30" height="20" as="geometry" />
        </mxCell>
        <mxCell id="i5uj6cN08diidUBK15VX-100" value="&amp;nbsp; &amp;nbsp; &amp;nbsp; &amp;nbsp; &amp;nbsp; &amp;nbsp; name_speciality" style="text;html=1;align=center;verticalAlign=middle;resizable=0;points=[];autosize=1;" vertex="1" parent="1">
          <mxGeometry x="40" y="1000" width="140" height="20" as="geometry" />
        </mxCell>
        <mxCell id="i5uj6cN08diidUBK15VX-101" value="number_course" style="text;html=1;align=center;verticalAlign=middle;resizable=0;points=[];autosize=1;" vertex="1" parent="1">
          <mxGeometry x="80" y="1020" width="100" height="20" as="geometry" />
        </mxCell>
        <mxCell id="i5uj6cN08diidUBK15VX-102" value="&lt;b&gt;FK&lt;/b&gt;" style="text;html=1;align=center;verticalAlign=middle;resizable=0;points=[];autosize=1;" vertex="1" parent="1">
          <mxGeometry x="40" y="1170" width="30" height="20" as="geometry" />
        </mxCell>
        <mxCell id="i5uj6cN08diidUBK15VX-108" value="&amp;nbsp; &amp;nbsp; &amp;nbsp; &amp;nbsp;lector_name" style="text;html=1;align=center;verticalAlign=middle;resizable=0;points=[];autosize=1;" vertex="1" parent="1">
          <mxGeometry x="305" y="600" width="100" height="20" as="geometry" />
        </mxCell>
        <mxCell id="i5uj6cN08diidUBK15VX-109" value="attendance" style="text;html=1;align=center;verticalAlign=middle;resizable=0;points=[];autosize=1;" vertex="1" parent="1">
          <mxGeometry x="330" y="620" width="70" height="20" as="geometry" />
        </mxCell>
        <mxCell id="i5uj6cN08diidUBK15VX-110" value="&lt;b&gt;FK&lt;/b&gt;" style="text;html=1;align=center;verticalAlign=middle;resizable=0;points=[];autosize=1;" vertex="1" parent="1">
          <mxGeometry x="280" y="770" width="30" height="20" as="geometry" />
        </mxCell>
        <mxCell id="i5uj6cN08diidUBK15VX-116" value="module" style="text;html=1;align=center;verticalAlign=middle;resizable=0;points=[];autosize=1;" vertex="1" parent="1">
          <mxGeometry x="335" y="640" width="50" height="20" as="geometry" />
        </mxCell>
        <mxCell id="C-vyLk0tnHw3VtMMgP7b-23" value="Student" style="shape=table;startSize=40;container=1;collapsible=1;childLayout=tableLayout;fixedRows=1;rowLines=0;fontStyle=1;align=center;resizeLast=1;" parent="1" vertex="1">
          <mxGeometry x="40" y="120" width="200" height="240" as="geometry" />
        </mxCell>
        <mxCell id="C-vyLk0tnHw3VtMMgP7b-24" value="" style="shape=partialRectangle;collapsible=0;dropTarget=0;pointerEvents=0;fillColor=none;points=[[0,0.5],[1,0.5]];portConstraint=eastwest;top=0;left=0;right=0;bottom=1;" parent="C-vyLk0tnHw3VtMMgP7b-23" vertex="1">
          <mxGeometry y="40" width="200" height="40" as="geometry" />
        </mxCell>
        <mxCell id="C-vyLk0tnHw3VtMMgP7b-25" value="PK" style="shape=partialRectangle;overflow=hidden;connectable=0;fillColor=none;top=0;left=0;bottom=0;right=0;fontStyle=1;" parent="C-vyLk0tnHw3VtMMgP7b-24" vertex="1">
          <mxGeometry width="40" height="40" as="geometry" />
        </mxCell>
        <mxCell id="C-vyLk0tnHw3VtMMgP7b-26" value="stud_id" style="shape=partialRectangle;overflow=hidden;connectable=0;fillColor=none;top=0;left=0;bottom=0;right=0;align=left;spacingLeft=6;fontStyle=5;" parent="C-vyLk0tnHw3VtMMgP7b-24" vertex="1">
          <mxGeometry x="40" width="160" height="40" as="geometry" />
        </mxCell>
        <mxCell id="C-vyLk0tnHw3VtMMgP7b-27" value="" style="shape=partialRectangle;collapsible=0;dropTarget=0;pointerEvents=0;fillColor=none;points=[[0,0.5],[1,0.5]];portConstraint=eastwest;top=0;left=0;right=0;bottom=0;" parent="C-vyLk0tnHw3VtMMgP7b-23" vertex="1">
          <mxGeometry y="80" width="200" height="30" as="geometry" />
        </mxCell>
        <mxCell id="C-vyLk0tnHw3VtMMgP7b-28" value="" style="shape=partialRectangle;overflow=hidden;connectable=0;fillColor=none;top=0;left=0;bottom=0;right=0;" parent="C-vyLk0tnHw3VtMMgP7b-27" vertex="1">
          <mxGeometry width="40" height="30" as="geometry" />
        </mxCell>
        <mxCell id="C-vyLk0tnHw3VtMMgP7b-29" value="last_name" style="shape=partialRectangle;overflow=hidden;connectable=0;fillColor=none;top=0;left=0;bottom=0;right=0;align=left;spacingLeft=6;" parent="C-vyLk0tnHw3VtMMgP7b-27" vertex="1">
          <mxGeometry x="40" width="160" height="30" as="geometry" />
        </mxCell>
        <mxCell id="i5uj6cN08diidUBK15VX-25" style="edgeStyle=orthogonalEdgeStyle;rounded=0;orthogonalLoop=1;jettySize=auto;html=1;exitX=1;exitY=0.5;exitDx=0;exitDy=0;" edge="1" parent="C-vyLk0tnHw3VtMMgP7b-23" source="C-vyLk0tnHw3VtMMgP7b-24" target="C-vyLk0tnHw3VtMMgP7b-24">
          <mxGeometry relative="1" as="geometry" />
        </mxCell>
        <mxCell id="i5uj6cN08diidUBK15VX-185" value="degree" style="text;html=1;align=center;verticalAlign=middle;resizable=0;points=[];autosize=1;" vertex="1" parent="1">
          <mxGeometry x="719" y="300" width="50" height="20" as="geometry" />
        </mxCell>
        <mxCell id="i5uj6cN08diidUBK15VX-187" value="phone" style="text;html=1;align=center;verticalAlign=middle;resizable=0;points=[];autosize=1;" vertex="1" parent="1">
          <mxGeometry x="719" y="280" width="50" height="20" as="geometry" />
        </mxCell>
        <mxCell id="i5uj6cN08diidUBK15VX-188" value="course" style="text;html=1;align=center;verticalAlign=middle;resizable=0;points=[];autosize=1;" vertex="1" parent="1">
          <mxGeometry x="719" y="320" width="50" height="20" as="geometry" />
        </mxCell>
        <mxCell id="i5uj6cN08diidUBK15VX-189" value="groups&lt;br&gt;e-mail" style="text;html=1;align=center;verticalAlign=middle;resizable=0;points=[];autosize=1;" vertex="1" parent="1">
          <mxGeometry x="719" y="240" width="50" height="30" as="geometry" />
        </mxCell>
        <mxCell id="i5uj6cN08diidUBK15VX-190" value="&lt;b&gt;FK&lt;/b&gt;" style="text;html=1;align=center;verticalAlign=middle;resizable=0;points=[];autosize=1;" vertex="1" parent="1">
          <mxGeometry x="689" y="330" width="30" height="20" as="geometry" />
        </mxCell>
        <mxCell id="i5uj6cN08diidUBK15VX-89" value="Department" style="shape=table;startSize=40;container=1;collapsible=1;childLayout=tableLayout;fixedRows=1;rowLines=0;fontStyle=1;align=center;resizeLast=1;" vertex="1" parent="1">
          <mxGeometry x="39" y="520" width="200" height="280" as="geometry" />
        </mxCell>
        <mxCell id="i5uj6cN08diidUBK15VX-90" value="" style="shape=partialRectangle;collapsible=0;dropTarget=0;pointerEvents=0;fillColor=none;points=[[0,0.5],[1,0.5]];portConstraint=eastwest;top=0;left=0;right=0;bottom=1;" vertex="1" parent="i5uj6cN08diidUBK15VX-89">
          <mxGeometry y="40" width="200" height="40" as="geometry" />
        </mxCell>
        <mxCell id="i5uj6cN08diidUBK15VX-91" value="PK" style="shape=partialRectangle;overflow=hidden;connectable=0;fillColor=none;top=0;left=0;bottom=0;right=0;fontStyle=1;" vertex="1" parent="i5uj6cN08diidUBK15VX-90">
          <mxGeometry width="40" height="40" as="geometry" />
        </mxCell>
        <mxCell id="i5uj6cN08diidUBK15VX-92" value="dep_id" style="shape=partialRectangle;overflow=hidden;connectable=0;fillColor=none;top=0;left=0;bottom=0;right=0;align=left;spacingLeft=6;fontStyle=5;" vertex="1" parent="i5uj6cN08diidUBK15VX-90">
          <mxGeometry x="40" width="160" height="40" as="geometry" />
        </mxCell>
        <mxCell id="i5uj6cN08diidUBK15VX-93" style="edgeStyle=orthogonalEdgeStyle;rounded=0;orthogonalLoop=1;jettySize=auto;html=1;exitX=1;exitY=0.5;exitDx=0;exitDy=0;" edge="1" parent="i5uj6cN08diidUBK15VX-89" source="i5uj6cN08diidUBK15VX-90" target="i5uj6cN08diidUBK15VX-90">
          <mxGeometry relative="1" as="geometry" />
        </mxCell>
        <mxCell id="i5uj6cN08diidUBK15VX-220" value="&lt;b&gt;group_id&lt;/b&gt;" style="text;html=1;align=center;verticalAlign=middle;resizable=0;points=[];autosize=1;" vertex="1" parent="1">
          <mxGeometry x="619" y="410" width="70" height="20" as="geometry" />
        </mxCell>
        <mxCell id="i5uj6cN08diidUBK15VX-228" value="" style="edgeStyle=entityRelationEdgeStyle;fontSize=12;html=1;endArrow=ERoneToMany;startArrow=ERzeroToOne;shadow=0;strokeColor=#3333FF;strokeWidth=3;curved=1;" edge="1" parent="1" source="i5uj6cN08diidUBK15VX-220" target="i5uj6cN08diidUBK15VX-53">
          <mxGeometry width="100" height="100" relative="1" as="geometry">
            <mxPoint x="930" y="420" as="sourcePoint" />
            <mxPoint x="940" y="440" as="targetPoint" />
          </mxGeometry>
        </mxCell>
        <mxCell id="i5uj6cN08diidUBK15VX-28" value="Teacher" style="shape=table;startSize=40;container=1;collapsible=1;childLayout=tableLayout;fixedRows=1;rowLines=0;fontStyle=1;align=center;resizeLast=1;" vertex="1" parent="1">
          <mxGeometry x="679" y="480" width="200" height="280" as="geometry" />
        </mxCell>
        <mxCell id="i5uj6cN08diidUBK15VX-29" value="" style="shape=partialRectangle;collapsible=0;dropTarget=0;pointerEvents=0;fillColor=none;points=[[0,0.5],[1,0.5]];portConstraint=eastwest;top=0;left=0;right=0;bottom=1;" vertex="1" parent="i5uj6cN08diidUBK15VX-28">
          <mxGeometry y="40" width="200" height="40" as="geometry" />
        </mxCell>
        <mxCell id="i5uj6cN08diidUBK15VX-30" value="PK" style="shape=partialRectangle;overflow=hidden;connectable=0;fillColor=none;top=0;left=0;bottom=0;right=0;fontStyle=1;" vertex="1" parent="i5uj6cN08diidUBK15VX-29">
          <mxGeometry width="40" height="40" as="geometry" />
        </mxCell>
        <mxCell id="i5uj6cN08diidUBK15VX-31" value="teach_id" style="shape=partialRectangle;overflow=hidden;connectable=0;fillColor=none;top=0;left=0;bottom=0;right=0;align=left;spacingLeft=6;fontStyle=5;" vertex="1" parent="i5uj6cN08diidUBK15VX-29">
          <mxGeometry x="40" width="160" height="40" as="geometry" />
        </mxCell>
        <mxCell id="i5uj6cN08diidUBK15VX-32" value="" style="shape=partialRectangle;collapsible=0;dropTarget=0;pointerEvents=0;fillColor=none;points=[[0,0.5],[1,0.5]];portConstraint=eastwest;top=0;left=0;right=0;bottom=0;" vertex="1" parent="i5uj6cN08diidUBK15VX-28">
          <mxGeometry y="80" width="200" height="30" as="geometry" />
        </mxCell>
        <mxCell id="i5uj6cN08diidUBK15VX-33" value="" style="shape=partialRectangle;overflow=hidden;connectable=0;fillColor=none;top=0;left=0;bottom=0;right=0;" vertex="1" parent="i5uj6cN08diidUBK15VX-32">
          <mxGeometry width="40" height="30" as="geometry" />
        </mxCell>
        <mxCell id="i5uj6cN08diidUBK15VX-34" value="last_name" style="shape=partialRectangle;overflow=hidden;connectable=0;fillColor=none;top=0;left=0;bottom=0;right=0;align=left;spacingLeft=6;" vertex="1" parent="i5uj6cN08diidUBK15VX-32">
          <mxGeometry x="40" width="160" height="30" as="geometry" />
        </mxCell>
        <mxCell id="i5uj6cN08diidUBK15VX-35" style="edgeStyle=orthogonalEdgeStyle;rounded=0;orthogonalLoop=1;jettySize=auto;html=1;exitX=1;exitY=0.5;exitDx=0;exitDy=0;" edge="1" parent="i5uj6cN08diidUBK15VX-28" source="i5uj6cN08diidUBK15VX-29" target="i5uj6cN08diidUBK15VX-29">
          <mxGeometry relative="1" as="geometry" />
        </mxCell>
        <mxCell id="i5uj6cN08diidUBK15VX-111" value="Course" style="shape=table;startSize=40;container=1;collapsible=1;childLayout=tableLayout;fixedRows=1;rowLines=0;fontStyle=1;align=center;resizeLast=1;" vertex="1" parent="1">
          <mxGeometry x="280" y="520" width="200" height="280" as="geometry" />
        </mxCell>
        <mxCell id="i5uj6cN08diidUBK15VX-112" value="" style="shape=partialRectangle;collapsible=0;dropTarget=0;pointerEvents=0;fillColor=none;points=[[0,0.5],[1,0.5]];portConstraint=eastwest;top=0;left=0;right=0;bottom=1;" vertex="1" parent="i5uj6cN08diidUBK15VX-111">
          <mxGeometry y="40" width="200" height="40" as="geometry" />
        </mxCell>
        <mxCell id="i5uj6cN08diidUBK15VX-113" value="PK" style="shape=partialRectangle;overflow=hidden;connectable=0;fillColor=none;top=0;left=0;bottom=0;right=0;fontStyle=1;" vertex="1" parent="i5uj6cN08diidUBK15VX-112">
          <mxGeometry width="40" height="40" as="geometry" />
        </mxCell>
        <mxCell id="i5uj6cN08diidUBK15VX-114" value="curc_id" style="shape=partialRectangle;overflow=hidden;connectable=0;fillColor=none;top=0;left=0;bottom=0;right=0;align=left;spacingLeft=6;fontStyle=5;" vertex="1" parent="i5uj6cN08diidUBK15VX-112">
          <mxGeometry x="40" width="160" height="40" as="geometry" />
        </mxCell>
        <mxCell id="i5uj6cN08diidUBK15VX-115" style="edgeStyle=orthogonalEdgeStyle;rounded=0;orthogonalLoop=1;jettySize=auto;html=1;exitX=1;exitY=0.5;exitDx=0;exitDy=0;" edge="1" parent="i5uj6cN08diidUBK15VX-111" source="i5uj6cN08diidUBK15VX-112" target="i5uj6cN08diidUBK15VX-112">
          <mxGeometry relative="1" as="geometry" />
        </mxCell>
        <mxCell id="i5uj6cN08diidUBK15VX-103" value="Speciality" style="shape=table;startSize=40;container=1;collapsible=1;childLayout=tableLayout;fixedRows=1;rowLines=0;fontStyle=1;align=center;resizeLast=1;" vertex="1" parent="1">
          <mxGeometry x="40" y="920" width="200" height="280" as="geometry" />
        </mxCell>
        <mxCell id="i5uj6cN08diidUBK15VX-104" value="" style="shape=partialRectangle;collapsible=0;dropTarget=0;pointerEvents=0;fillColor=none;points=[[0,0.5],[1,0.5]];portConstraint=eastwest;top=0;left=0;right=0;bottom=1;" vertex="1" parent="i5uj6cN08diidUBK15VX-103">
          <mxGeometry y="40" width="200" height="40" as="geometry" />
        </mxCell>
        <mxCell id="i5uj6cN08diidUBK15VX-105" value="PK" style="shape=partialRectangle;overflow=hidden;connectable=0;fillColor=none;top=0;left=0;bottom=0;right=0;fontStyle=1;" vertex="1" parent="i5uj6cN08diidUBK15VX-104">
          <mxGeometry width="40" height="40" as="geometry" />
        </mxCell>
        <mxCell id="i5uj6cN08diidUBK15VX-106" value="sp_id" style="shape=partialRectangle;overflow=hidden;connectable=0;fillColor=none;top=0;left=0;bottom=0;right=0;align=left;spacingLeft=6;fontStyle=5;" vertex="1" parent="i5uj6cN08diidUBK15VX-104">
          <mxGeometry x="40" width="160" height="40" as="geometry" />
        </mxCell>
        <mxCell id="i5uj6cN08diidUBK15VX-107" style="edgeStyle=orthogonalEdgeStyle;rounded=0;orthogonalLoop=1;jettySize=auto;html=1;exitX=1;exitY=0.5;exitDx=0;exitDy=0;" edge="1" parent="i5uj6cN08diidUBK15VX-103" source="i5uj6cN08diidUBK15VX-104" target="i5uj6cN08diidUBK15VX-104">
          <mxGeometry relative="1" as="geometry" />
        </mxCell>
      </root>
    </mxGraphModel>
  </diagram>
</mxfile>
